<?xml version="1.0" standalone="no"?>
<!DOCTYPE svg PUBLIC "-//W3C//DTD SVG 1.1//EN" "http://www.w3.org/Graphics/SVG/1.1/DTD/svg11.dtd">
<svg t="1684996759806" class="icon" viewBox="0 0 1024 1024" version="1.1"
    xmlns="http://www.w3.org/2000/svg" p-id="3673" xmlns:xlink="http://www.w3.org/1999/xlink"
    width="200" height="200">
    <path d="M512 512m-512 0a512 512 0 1 0 1024 0 512 512 0 1 0-1024 0Z" fill="#69ADF4" p-id="3674"></path>
    <path
        d="M286.528449 249.814497m59.859704 0l332.021824 0q59.859704 0 59.859703 59.859704l0 404.651598q0 59.859704-59.859703 59.859704l-332.021824 0q-59.859704 0-59.859704-59.859704l0-404.651598q0-59.859704 59.859704-59.859704Z"
        fill="#FFFFFF" p-id="3675"></path>
    <path
        d="M367.937646 399.862822m21.948558 0l247.420109 0q21.948558 0 21.948558 21.948558l0 0q0 21.948558-21.948558 21.948558l-247.420109 0q-21.948558 0-21.948558-21.948558l0 0q0-21.948558 21.948558-21.948558Z"
        fill="#6AAEF4" fill-opacity=".31" p-id="3676"></path>
    <path
        d="M367.937646 492.44583m21.948558 0l159.625877 0q21.948558 0 21.948558 21.948558l0 0q0 21.948558-21.948558 21.948558l-159.625877 0q-21.948558 0-21.948558-21.948558l0 0q0-21.948558 21.948558-21.948558Z"
        fill="#6AAEF4" fill-opacity=".31" p-id="3677"></path>
    <path
        d="M561.084957 673.6212m21.948558 0l71.831645 0q21.948558 0 21.948558 21.948558l0 0q0 21.948558-21.948558 21.948558l-71.831645 0q-21.948558 0-21.948558-21.948558l0 0q0-21.948558 21.948558-21.948558Z"
        fill="#6AAEF4" p-id="3678"></path>
</svg>