<?xml version="1.0" standalone="no"?><!DOCTYPE svg PUBLIC "-//W3C//DTD SVG 1.1//EN" "http://www.w3.org/Graphics/SVG/1.1/DTD/svg11.dtd"><svg t="1684999044649" class="icon" viewBox="0 0 1821 1024" version="1.1" xmlns="http://www.w3.org/2000/svg" p-id="8678" xmlns:xlink="http://www.w3.org/1999/xlink" width="355.6640625" height="200"><path d="M865.733333 1010.8c-275.733333 0-500-224.266667-500-500s224.266667-500 500-500 500 224.266667 500 500-224.266667 500-500 500z m0-940c-242.666667 0-440 197.333333-440 440s197.333333 440 440 440 440-197.333333 440-440-197.333333-440-440-440z" fill="#1296db" p-id="8679"></path><path d="M1000.4 815.866667c-83.466667 0-151.466667-34.933333-151.466667-77.866667V537.733333c0-42.933333 67.866667-77.866667 151.466667-77.866666s151.466667 34.933333 151.466667 77.866666v200.266667c-0.133333 42.933333-68 77.866667-151.466667 77.866667z m0-322.533334c-78.533333 0-118.933333 31.2-118.933333 44.533334s40.533333 44.533333 118.933333 44.533333c78.533333 0 118.933333-31.2 118.933333-44.533333S1078.933333 493.333333 1000.4 493.333333z m118.933333 92.4c-27.733333 18.133333-70.666667 29.866667-118.933333 29.866667s-91.2-11.733333-118.933333-29.866667v52.133334c0 13.333333 40.533333 44.533333 118.933333 44.533333 78.533333 0 118.933333-31.2 118.933333-44.533333v-52.133334z m0 100.133334c-27.733333 18.133333-70.666667 29.866667-118.933333 29.866666s-91.2-11.733333-118.933333-29.866666v52.133333c0 13.333333 40.533333 44.533333 118.933333 44.533333 78.533333 0 118.933333-31.2 118.933333-44.533333v-52.133333z m-118.933333-288.4v37.733333c18 1.2 35.066667 4.133333 50.533333 8.266667v-119.2c0-65.333333-105.6-118.666667-235.6-118.666667-129.866667 0-235.6 53.2-235.6 118.666667V629.333333c0 65.466667 105.6 118.666667 235.6 118.666667 8 0 15.866667-0.266667 23.733334-0.666667-7.333333-9.2-11.333333-19.333333-11.333334-29.866666v-20.933334c-4.266667 0.133333-8 0.533333-12.4 0.533334-122.133333 0-185.066667-47.466667-185.066666-67.733334v-79.333333c43.2 27.6 110 45.466667 185.066666 45.466667 4.133333 0 8.266667-0.266667 12.4-0.4V544c-4.266667 0.133333-8 0.533333-12.4 0.533333-122.133333 0-185.066667-47.6-185.066666-67.866666V397.333333c43.2 27.6 110 45.466667 185.066666 45.466667 75.066667 0.133333 141.866667-17.733333 185.066667-45.333333zM815.333333 256.533333c122.133333 0 185.066667 47.466667 185.066667 67.866667 0 20.266667-62.933333 67.866667-185.066667 67.866667s-185.066667-47.466667-185.066666-67.866667c0-20.4 62.933333-67.866667 185.066666-67.866667z m0 0" fill="#1296db" p-id="8680"></path></svg>